<?xml version="1.0" encoding="UTF-8" standalone="no"?><svg xmlns="http://www.w3.org/2000/svg" xmlns:xlink="http://www.w3.org/1999/xlink" contentStyleType="text/css" height="633px" preserveAspectRatio="none" style="width:810px;height:633px;background:#FFFFFF;" version="1.1" viewBox="0 0 810 633" width="810px" zoomAndPan="magnify"><defs/><g><rect height="26.2969" style="stroke:#00000000;stroke-width:1.0;fill:none;" width="247" x="274.5" y="5"/><text fill="#000000" font-family="sans-serif" font-size="14" font-weight="bold" lengthAdjust="spacing" textLength="237" x="279.5" y="22.9951">RDMO Docker Compose Setup</text><g id="cluster_##4"><rect height="583" rx="2.5" ry="2.5" style="stroke:#181818;stroke-width:1.0;fill:none;" width="797" x="7" y="44.2969"/></g><!--MD5=[1c248c30e00df2d3cbb6d9ecdb3a305b]
cluster Volumes--><g id="cluster_Volumes"><rect fill="#EEEEEE" height="87" rx="2.5" ry="2.5" style="stroke:#181818;stroke-width:1.0;" width="749" x="31" y="516.2969"/><path d="M109,516.2969 L109,525.5938 L99,535.5938 L31,535.5938 " fill="none" style="stroke:#181818;stroke-width:1.0;"/><text fill="#000000" font-family="sans-serif" font-size="14" font-weight="bold" lengthAdjust="spacing" textLength="68" x="34" y="530.292">Volumes</text></g><!--MD5=[9d0edf3fa93b0f01bff95c9e97bfe8aa]
cluster Containers--><g id="cluster_Containers"><rect fill="#EEEEEE" height="283" rx="2.5" ry="2.5" style="stroke:#181818;stroke-width:1.0;" width="416" x="160" y="200.2969"/><path d="M256,200.2969 L256,209.5938 L246,219.5938 L160,219.5938 " fill="none" style="stroke:#181818;stroke-width:1.0;"/><text fill="#000000" font-family="sans-serif" font-size="14" font-weight="bold" lengthAdjust="spacing" textLength="86" x="163" y="214.292">Containers</text></g><!--MD5=[8fc3522a43f8c7199df5e09e5bb0188e]
entity user--><g id="elem_user"><ellipse cx="469" cy="68.7969" fill="#F1F1F1" rx="8" ry="8" style="stroke:#181818;stroke-width:0.5;"/><path d="M469,76.7969 L469,103.7969 M456,84.7969 L482,84.7969 M469,103.7969 L456,118.7969 M469,103.7969 L482,118.7969 " fill="none" style="stroke:#181818;stroke-width:0.5;"/><text fill="#000000" font-family="sans-serif" font-size="14" lengthAdjust="spacing" textLength="32" x="453" y="133.292">User</text></g><!--MD5=[3ead9b799559d9921a5a8b604f6e8769]
entity vlog--><g id="elem_vlog"><rect fill="#99B29C" height="36.2969" rx="35" ry="35" style="stroke:#181818;stroke-width:2.0;" width="96" x="449" y="551.2969"/><text fill="#000000" font-family="sans-serif" font-size="14" lengthAdjust="spacing" textLength="76" x="459" y="574.292">log:/vol/log</text></g><!--MD5=[d411591f39ae658c426feda6e05cd82c]
entity vapp--><g id="elem_vapp"><rect fill="#99B29C" height="36.2969" rx="35" ry="35" style="stroke:#181818;stroke-width:2.0;" width="183" x="580.5" y="551.2969"/><text fill="#000000" font-family="sans-serif" font-size="14" lengthAdjust="spacing" textLength="163" x="590.5" y="574.292">rdmoapp:/vol/rdmo-app</text></g><!--MD5=[42f053cff911120fba4c172fc2c40580]
entity vve--><g id="elem_vve"><rect fill="#99B29C" height="36.2969" rx="35" ry="35" style="stroke:#181818;stroke-width:2.0;" width="86" x="328" y="551.2969"/><text fill="#000000" font-family="sans-serif" font-size="14" lengthAdjust="spacing" textLength="66" x="338" y="574.292">ve:/vol/ve</text></g><!--MD5=[571b77d9c1efa1371d7e553c6ad3750b]
entity vpg--><g id="elem_vpg"><rect fill="#99B29C" height="36.2969" rx="35" ry="35" style="stroke:#181818;stroke-width:2.0;" width="246" x="47" y="551.2969"/><text fill="#000000" font-family="sans-serif" font-size="14" lengthAdjust="spacing" textLength="226" x="57" y="574.292">postgres:/var/lib/postgresql/data</text></g><!--MD5=[8b86a5bed8b7ca2c95eb2754e2b17b68]
entity rdmo--><g id="elem_rdmo"><rect fill="#D8B26C" height="60.5938" rx="2.5" ry="2.5" style="stroke:#181818;stroke-width:2.0;" width="138" x="176" y="251.2969"/><text fill="#000000" font-family="sans-serif" font-size="14" lengthAdjust="spacing" textLength="44" x="186" y="274.292">RDMO</text><line style="stroke:#181818;stroke-width:1.0;" x1="177" x2="313" y1="277.5938" y2="277.5938"/><text fill="#000000" font-family="sans-serif" font-size="14" lengthAdjust="spacing" textLength="118" x="186" y="294.5889">running gunicorn</text></g><!--MD5=[b14aa3529a60505823c7fa67d4fbe949]
entity caddy--><g id="elem_caddy"><rect fill="#D8B26C" height="93.1875" rx="2.5" ry="2.5" style="stroke:#181818;stroke-width:2.0;" width="181" x="378.5" y="235.2969"/><text fill="#000000" font-family="sans-serif" font-size="14" lengthAdjust="spacing" textLength="43" x="388.5" y="258.292">Caddy</text><line style="stroke:#181818;stroke-width:1.0;" x1="379.5" x2="558.5" y1="261.5938" y2="261.5938"/><text fill="#000000" font-family="sans-serif" font-size="14" lengthAdjust="spacing" textLength="161" x="388.5" y="278.5889">listening on 8484:8080</text><text fill="#000000" font-family="sans-serif" font-size="14" lengthAdjust="spacing" textLength="123" x="388.5" y="294.8857">either serve static</text><text fill="#000000" font-family="sans-serif" font-size="14" lengthAdjust="spacing" textLength="109" x="388.5" y="311.1826">or pass to rdmo</text></g><!--MD5=[4819d7e546ed2c2981b8955b82e72e10]
entity pg--><g id="elem_pg"><rect fill="#D8B26C" height="60.5938" rx="2.5" ry="2.5" style="stroke:#181818;stroke-width:2.0;" width="199" x="176.5" y="406.2969"/><text fill="#000000" font-family="sans-serif" font-size="14" lengthAdjust="spacing" textLength="81" x="186.5" y="429.292">PostgreSQL</text><line style="stroke:#181818;stroke-width:1.0;" x1="177.5" x2="374.5" y1="432.5938" y2="432.5938"/><text fill="#000000" font-family="sans-serif" font-size="14" lengthAdjust="spacing" textLength="179" x="186.5" y="449.5889">storing data in the volume</text></g><!--MD5=[06424730b4671029f82c6d901dd23d2c]
link user to caddy--><g id="link_user_caddy"><path d="M469,141.5869 C469,167.9469 469,202.0169 469,229.8569 " fill="none" id="user-caddy" style="stroke:#000000;stroke-width:1.0;stroke-dasharray:7.0,7.0;"/><polygon fill="#000000" points="469,234.9869,473,225.9869,469,229.9869,465,225.9869,469,234.9869" style="stroke:#000000;stroke-width:1.0;"/><polygon fill="#000000" points="469,136.4669,465,145.4669,469,141.4669,473,145.4669,469,136.4669" style="stroke:#000000;stroke-width:1.0;"/><text fill="#000000" font-family="sans-serif" font-size="14" lengthAdjust="spacing" textLength="28" x="474" y="180.292">http</text></g><!--MD5=[8a471da652d01631fd5e0d14d67cb007]
link rdmo to vapp--><g id="link_rdmo_vapp"><path d="M309.12,312.3869 C335.21,325.3269 365.22,341.4069 391,358.2969 C419.27,376.8269 424.06,384.6169 450,406.2969 C494.5,443.4869 502.29,456.9269 549,491.2969 C579.54,513.7669 616.68,536.4269 642.11,551.2969 " fill="none" id="rdmo-vapp" style="stroke:#000000;stroke-width:1.0;"/></g><!--MD5=[a2aaa4b87c25ca9060231c25febe2447]
link rdmo to vlog--><g id="link_rdmo_vlog"><path d="M309.28,312.3069 C331.67,324.5169 355.92,340.1069 375,358.2969 C433.79,414.3669 473.19,504.9869 489.09,546.3969 " fill="none" id="rdmo-to-vlog" style="stroke:#000000;stroke-width:1.0;"/><polygon fill="#000000" points="490.91,551.1969,491.459,541.3633,489.1372,546.5217,483.9788,544.1999,490.91,551.1969" style="stroke:#000000;stroke-width:1.0;"/></g><!--MD5=[420cb358297e4404d4bc65e5b3e27286]
link rdmo to vve--><g id="link_rdmo_vve"><path d="M300.48,312.2969 C334.04,333.5069 373.92,365.5269 393,406.2969 C415.86,455.1369 392.67,520.7169 379.19,551.2869 " fill="none" id="rdmo-vve" style="stroke:#000000;stroke-width:1.0;"/></g><!--MD5=[2ca7e5d3de360b96ff217c151e8ccc53]
link caddy to vapp--><g id="link_caddy_vapp"><path d="M501.39,328.3469 C547.29,392.8969 629.08,507.9369 659.85,551.2069 " fill="none" id="caddy-vapp" style="stroke:#000000;stroke-width:1.0;"/><text fill="#000000" font-family="sans-serif" font-size="14" lengthAdjust="spacing" textLength="113" x="618" y="441.792">static file access</text></g><!--MD5=[5d03cf2f9acdecc8e811d20a2a8c17f4]
link caddy to vlog--><g id="link_caddy_vlog"><path d="M487.36,328.4969 C490.51,338.1869 493.31,348.4569 495,358.2969 C506.62,425.7669 502.27,507.2369 499.13,545.8669 " fill="none" id="caddy-to-vlog" style="stroke:#000000;stroke-width:1.0;"/><polygon fill="#000000" points="498.67,551.2569,503.4015,542.619,499.084,546.274,495.429,541.9565,498.67,551.2569" style="stroke:#000000;stroke-width:1.0;"/></g><!--MD5=[28d08c6d0fea2750ad271f913c781369]
link rdmo to caddy--><g id="link_rdmo_caddy"><path d="M319.32,281.7969 C336.59,281.7969 355.21,281.7969 373.25,281.7969 " fill="none" id="rdmo-caddy" style="stroke:#000000;stroke-width:1.0;stroke-dasharray:7.0,7.0;"/><polygon fill="#000000" points="378.33,281.7969,369.33,277.7969,373.33,281.7969,369.33,285.7969,378.33,281.7969" style="stroke:#000000;stroke-width:1.0;"/><polygon fill="#000000" points="314.04,281.7969,323.04,285.7969,319.04,281.7969,323.04,277.7969,314.04,281.7969" style="stroke:#000000;stroke-width:1.0;"/><text fill="#000000" font-family="sans-serif" font-size="14" lengthAdjust="spacing" textLength="28" x="332.25" y="274.792">http</text></g><!--MD5=[c4df29260d836e5a8b4b216983b86de4]
link pg to vpg--><g id="link_pg_vpg"><path d="M251.95,467.4069 C230.93,493.2769 201.17,529.9269 183.89,551.1969 " fill="none" id="pg-vpg" style="stroke:#000000;stroke-width:1.0;"/></g><!--MD5=[437101abaa376dd40627fa52e374a13f]
link rdmo to pg--><g id="link_rdmo_pg"><path d="M252.11,317.8769 C257.16,342.8369 263.93,376.2169 268.97,401.0969 " fill="none" id="rdmo-pg" style="stroke:#000000;stroke-width:1.0;stroke-dasharray:7.0,7.0;"/><polygon fill="#000000" points="270.02,406.2669,272.1396,396.6488,269.0202,401.3679,264.3011,398.2485,270.02,406.2669" style="stroke:#000000;stroke-width:1.0;"/><polygon fill="#000000" points="251.05,312.6569,248.9035,322.269,252.0361,317.5587,256.7464,320.6913,251.05,312.6569" style="stroke:#000000;stroke-width:1.0;"/><text fill="#000000" font-family="sans-serif" font-size="14" lengthAdjust="spacing" textLength="29" x="268" y="372.292">psql</text></g><!--MD5=[4271116eac582742d503716287961963]
@startuml

title "RDMO Docker Compose Setup"

rectangle {
    actor "User" as user
    frame Volumes {
        storage "log:/vol/log" as vlog
        storage "rdmoapp:/vol/rdmo-app" as vapp
        storage "ve:/vol/ve" as vve
        storage "postgres:/var/lib/postgresql/data" as vpg
    }
    frame Containers {
        agent "RDMO\n- -\nrunning gunicorn" as rdmo
        agent "Caddy\n- -\nlistening on 8484:8080\neither serve static\nor pass to rdmo" as caddy
        agent "PostgreSQL\n- -\nstoring data in the volume" as pg
    }
    <style>
    arrow {
        FontSize 14
        LineColor #000000
    }
    agent {
        BackGroundColor #D8B26C
        LineThickness 2
    }
    storage {
        BackGroundColor #99B29C
        LineThickness 2
    }
    frame {
        BackGroundColor #eeeeee
    }
    </style>
}

user <..> caddy : " http"

rdmo - - vapp
rdmo - ->  vlog
rdmo - - vve
caddy - - vapp : "static file access"
caddy - -> vlog
caddy <.l.> rdmo : "http"
pg - - vpg
rdmo <..> pg : " psql"

@enduml

PlantUML version 1.2022.6(Tue Jun 21 19:34:49 CEST 2022)
(GPL source distribution)
Java Runtime: OpenJDK Runtime Environment
JVM: OpenJDK 64-Bit Server VM
Default Encoding: UTF-8
Language: en
Country: US
--></g></svg>