<?xml version="1.0" encoding="UTF-8" standalone="no"?><svg xmlns="http://www.w3.org/2000/svg" xmlns:xlink="http://www.w3.org/1999/xlink" contentStyleType="text/css" height="633px" preserveAspectRatio="none" style="width:689px;height:633px;background:#FFFFFF;" version="1.1" viewBox="0 0 689 633" width="689px" zoomAndPan="magnify"><defs/><g><rect height="26.2969" style="stroke:#00000000;stroke-width:1.0;fill:none;" width="247" x="214" y="5"/><text fill="#000000" font-family="sans-serif" font-size="14" font-weight="bold" lengthAdjust="spacing" textLength="237" x="219" y="22.9951">RDMO Docker Compose Setup</text><g id="cluster_##4"><rect height="583" rx="2.5" ry="2.5" style="stroke:#181818;stroke-width:1.0;fill:none;" width="676" x="7" y="44.2969"/></g><!--MD5=[1c248c30e00df2d3cbb6d9ecdb3a305b]
cluster Volumes--><g id="cluster_Volumes"><rect fill="#EEEEEE" height="87" rx="2.5" ry="2.5" style="stroke:#181818;stroke-width:1.0;" width="628" x="31" y="516.2969"/><path d="M109,516.2969 L109,525.5938 L99,535.5938 L31,535.5938 " fill="none" style="stroke:#181818;stroke-width:1.0;"/><text fill="#000000" font-family="sans-serif" font-size="14" font-weight="bold" lengthAdjust="spacing" textLength="68" x="34" y="530.292">Volumes</text></g><!--MD5=[9d0edf3fa93b0f01bff95c9e97bfe8aa]
cluster Containers--><g id="cluster_Containers"><rect fill="#EEEEEE" height="283" rx="2.5" ry="2.5" style="stroke:#181818;stroke-width:1.0;" width="416" x="124" y="200.2969"/><path d="M220,200.2969 L220,209.5938 L210,219.5938 L124,219.5938 " fill="none" style="stroke:#181818;stroke-width:1.0;"/><text fill="#000000" font-family="sans-serif" font-size="14" font-weight="bold" lengthAdjust="spacing" textLength="86" x="127" y="214.292">Containers</text></g><!--MD5=[8fc3522a43f8c7199df5e09e5bb0188e]
entity user--><g id="elem_user"><ellipse cx="433" cy="68.7969" fill="#F1F1F1" rx="8" ry="8" style="stroke:#181818;stroke-width:0.5;"/><path d="M433,76.7969 L433,103.7969 M420,84.7969 L446,84.7969 M433,103.7969 L420,118.7969 M433,103.7969 L446,118.7969 " fill="none" style="stroke:#181818;stroke-width:0.5;"/><text fill="#000000" font-family="sans-serif" font-size="14" lengthAdjust="spacing" textLength="32" x="417" y="133.292">User</text></g><!--MD5=[3ead9b799559d9921a5a8b604f6e8769]
entity vlog--><g id="elem_vlog"><rect fill="#99B29C" height="36.2969" rx="35" ry="35" style="stroke:#181818;stroke-width:2.0;" width="96" x="328" y="551.2969"/><text fill="#000000" font-family="sans-serif" font-size="14" lengthAdjust="spacing" textLength="76" x="338" y="574.292">log:/vol/log</text></g><!--MD5=[d411591f39ae658c426feda6e05cd82c]
entity vapp--><g id="elem_vapp"><rect fill="#99B29C" height="36.2969" rx="35" ry="35" style="stroke:#181818;stroke-width:2.0;" width="183" x="459.5" y="551.2969"/><text fill="#000000" font-family="sans-serif" font-size="14" lengthAdjust="spacing" textLength="163" x="469.5" y="574.292">rdmoapp:/vol/rdmo-app</text></g><!--MD5=[571b77d9c1efa1371d7e553c6ad3750b]
entity vpg--><g id="elem_vpg"><rect fill="#99B29C" height="36.2969" rx="35" ry="35" style="stroke:#181818;stroke-width:2.0;" width="246" x="47" y="551.2969"/><text fill="#000000" font-family="sans-serif" font-size="14" lengthAdjust="spacing" textLength="226" x="57" y="574.292">postgres:/var/lib/postgresql/data</text></g><!--MD5=[8b86a5bed8b7ca2c95eb2754e2b17b68]
entity rdmo--><g id="elem_rdmo"><rect fill="#D8B26C" height="60.5938" rx="2.5" ry="2.5" style="stroke:#181818;stroke-width:2.0;" width="138" x="140" y="251.2969"/><text fill="#000000" font-family="sans-serif" font-size="14" lengthAdjust="spacing" textLength="44" x="150" y="274.292">RDMO</text><line style="stroke:#181818;stroke-width:1.0;" x1="141" x2="277" y1="277.5938" y2="277.5938"/><text fill="#000000" font-family="sans-serif" font-size="14" lengthAdjust="spacing" textLength="118" x="150" y="294.5889">running gunicorn</text></g><!--MD5=[b14aa3529a60505823c7fa67d4fbe949]
entity caddy--><g id="elem_caddy"><rect fill="#D8B26C" height="93.1875" rx="2.5" ry="2.5" style="stroke:#181818;stroke-width:2.0;" width="181" x="342.5" y="235.2969"/><text fill="#000000" font-family="sans-serif" font-size="14" lengthAdjust="spacing" textLength="43" x="352.5" y="258.292">Caddy</text><line style="stroke:#181818;stroke-width:1.0;" x1="343.5" x2="522.5" y1="261.5938" y2="261.5938"/><text fill="#000000" font-family="sans-serif" font-size="14" lengthAdjust="spacing" textLength="161" x="352.5" y="278.5889">listening on 8484:8080</text><text fill="#000000" font-family="sans-serif" font-size="14" lengthAdjust="spacing" textLength="123" x="352.5" y="294.8857">either serve static</text><text fill="#000000" font-family="sans-serif" font-size="14" lengthAdjust="spacing" textLength="109" x="352.5" y="311.1826">or pass to rdmo</text></g><!--MD5=[4819d7e546ed2c2981b8955b82e72e10]
entity pg--><g id="elem_pg"><rect fill="#D8B26C" height="60.5938" rx="2.5" ry="2.5" style="stroke:#181818;stroke-width:2.0;" width="199" x="140.5" y="406.2969"/><text fill="#000000" font-family="sans-serif" font-size="14" lengthAdjust="spacing" textLength="81" x="150.5" y="429.292">PostgreSQL</text><line style="stroke:#181818;stroke-width:1.0;" x1="141.5" x2="338.5" y1="432.5938" y2="432.5938"/><text fill="#000000" font-family="sans-serif" font-size="14" lengthAdjust="spacing" textLength="179" x="150.5" y="449.5889">storing data in the volume</text></g><!--MD5=[06424730b4671029f82c6d901dd23d2c]
link user to caddy--><g id="link_user_caddy"><path d="M433,141.5869 C433,167.9469 433,202.0169 433,229.8569 " fill="none" id="user-caddy" style="stroke:#000000;stroke-width:1.0;stroke-dasharray:7.0,7.0;"/><polygon fill="#000000" points="433,234.9869,437,225.9869,433,229.9869,429,225.9869,433,234.9869" style="stroke:#000000;stroke-width:1.0;"/><polygon fill="#000000" points="433,136.4669,429,145.4669,433,141.4669,437,145.4669,433,136.4669" style="stroke:#000000;stroke-width:1.0;"/><text fill="#000000" font-family="sans-serif" font-size="14" lengthAdjust="spacing" textLength="28" x="438" y="180.292">http</text></g><!--MD5=[8a471da652d01631fd5e0d14d67cb007]
link rdmo to vapp--><g id="link_rdmo_vapp"><path d="M265.71,312.3169 C288.66,325.2469 314.89,341.3369 337,358.2969 C358.53,374.8169 486.94,503.7269 533.85,550.9969 " fill="none" id="rdmo-vapp" style="stroke:#000000;stroke-width:1.0;"/></g><!--MD5=[a2aaa4b87c25ca9060231c25febe2447]
link rdmo to vlog--><g id="link_rdmo_vlog"><path d="M261.79,312.3769 C294.92,333.9169 335.34,366.2669 357,406.2969 C381.31,451.2169 380.8,513.2469 378.37,545.9869 " fill="none" id="rdmo-to-vlog" style="stroke:#000000;stroke-width:1.0;"/><polygon fill="#000000" points="377.97,550.9769,382.6789,542.3267,378.371,545.993,374.7047,541.6851,377.97,550.9769" style="stroke:#000000;stroke-width:1.0;"/></g><!--MD5=[2ca7e5d3de360b96ff217c151e8ccc53]
link caddy to vapp--><g id="link_caddy_vapp"><path d="M451.83,328.3469 C478.51,392.8969 526.05,507.9369 543.94,551.2069 " fill="none" id="caddy-vapp" style="stroke:#000000;stroke-width:1.0;"/><text fill="#000000" font-family="sans-serif" font-size="14" lengthAdjust="spacing" textLength="113" x="520" y="441.792">static file access</text></g><!--MD5=[5d03cf2f9acdecc8e811d20a2a8c17f4]
link caddy to vlog--><g id="link_caddy_vlog"><path d="M428.7,328.6069 C426.98,343.8369 424.75,360.8469 422,376.2969 C410.92,438.5369 391.93,510.7469 382.18,546.2569 " fill="none" id="caddy-to-vlog" style="stroke:#000000;stroke-width:1.0;"/><polygon fill="#000000" points="380.81,551.2269,387.0601,543.6153,382.1401,546.407,379.3483,541.4871,380.81,551.2269" style="stroke:#000000;stroke-width:1.0;"/></g><!--MD5=[28d08c6d0fea2750ad271f913c781369]
link rdmo to caddy--><g id="link_rdmo_caddy"><path d="M283.32,281.7969 C300.59,281.7969 319.21,281.7969 337.25,281.7969 " fill="none" id="rdmo-caddy" style="stroke:#000000;stroke-width:1.0;stroke-dasharray:7.0,7.0;"/><polygon fill="#000000" points="342.33,281.7969,333.33,277.7969,337.33,281.7969,333.33,285.7969,342.33,281.7969" style="stroke:#000000;stroke-width:1.0;"/><polygon fill="#000000" points="278.04,281.7969,287.04,285.7969,283.04,281.7969,287.04,277.7969,278.04,281.7969" style="stroke:#000000;stroke-width:1.0;"/><text fill="#000000" font-family="sans-serif" font-size="14" lengthAdjust="spacing" textLength="28" x="296.25" y="274.792">http</text></g><!--MD5=[c4df29260d836e5a8b4b216983b86de4]
link pg to vpg--><g id="link_pg_vpg"><path d="M224.12,467.4069 C210.24,493.2769 190.58,529.9269 179.17,551.1969 " fill="none" id="pg-vpg" style="stroke:#000000;stroke-width:1.0;"/></g><!--MD5=[437101abaa376dd40627fa52e374a13f]
link rdmo to pg--><g id="link_rdmo_pg"><path d="M216.11,317.8769 C221.16,342.8369 227.93,376.2169 232.97,401.0969 " fill="none" id="rdmo-pg" style="stroke:#000000;stroke-width:1.0;stroke-dasharray:7.0,7.0;"/><polygon fill="#000000" points="234.02,406.2669,236.1396,396.6488,233.0202,401.3679,228.3011,398.2485,234.02,406.2669" style="stroke:#000000;stroke-width:1.0;"/><polygon fill="#000000" points="215.05,312.6569,212.9035,322.269,216.0361,317.5587,220.7464,320.6913,215.05,312.6569" style="stroke:#000000;stroke-width:1.0;"/><text fill="#000000" font-family="sans-serif" font-size="14" lengthAdjust="spacing" textLength="29" x="232" y="372.292">psql</text></g><!--MD5=[5d180e84e081ba29277fe456d01bc205]
@startuml

title "RDMO Docker Compose Setup"

rectangle {
    actor "User" as user
    frame Volumes {
        storage "log:/vol/log" as vlog
        storage "rdmoapp:/vol/rdmo-app" as vapp
        storage "postgres:/var/lib/postgresql/data" as vpg
    }
    frame Containers {
        agent "RDMO\n- -\nrunning gunicorn" as rdmo
        agent "Caddy\n- -\nlistening on 8484:8080\neither serve static\nor pass to rdmo" as caddy
        agent "PostgreSQL\n- -\nstoring data in the volume" as pg
    }
    <style>
    arrow {
        FontSize 14
        LineColor #000000
    }
    agent {
        BackGroundColor #D8B26C
        LineThickness 2
    }
    storage {
        BackGroundColor #99B29C
        LineThickness 2
    }
    frame {
        BackGroundColor #eeeeee
    }
    </style>
}

user <..> caddy : " http"

rdmo - - vapp
rdmo - ->  vlog
caddy - - vapp : "static file access"
caddy - -> vlog
caddy <.l.> rdmo : "http"
pg - - vpg
rdmo <..> pg : " psql"

@enduml

PlantUML version 1.2022.6(Tue Jun 21 19:34:49 CEST 2022)
(GPL source distribution)
Java Runtime: OpenJDK Runtime Environment
JVM: OpenJDK 64-Bit Server VM
Default Encoding: UTF-8
Language: en
Country: US
--></g></svg>